#!OML:ASF E:\Mandelcareful walks\Project 1\Capture day 1\Session 1\Subject1.ASF
:FULLY-SPECIFIED
:DEGREES
607
root 43.729 14.9006 0.811392 -154.939 -14.6002 170.728
lowerback 26.7615 1.25884 -3.89705
upperback 5.58178 -0.766043 -2.33905
thorax -8.62052 -0.737366 -0.0374736
lowerneck -28.5705 -5.3841 -10.3984
upperneck 8.97951 -4.75554 6.57011
head 7.66919 -2.10518 3.17514
rclavicle 3.18055e-014 -6.32135e-014
rhumerus -9.42574 0.970419 -78.4125
rradius 73.0706
rwrist -16.2764
rhand -18.7256 -21.285
rfingers 7.12502
rthumb 7.56999 -51.1296
lclavicle 3.18055e-014 -6.32135e-014
lhumerus -9.12485 -25.7135 76.618
lradius 69.5924
lwrist 23.4356
lhand -27.2304 -22.2217
lfingers 7.12502
lthumb -0.642622 7.75712
rfemur -69.4215 -25.2356 19.3378
rtibia 63.2377
rfoot -15.2741 -11.7977
rtoes 0.128387
lfemur -36.9619 17.3219 -13.6398
ltibia 60.9385
lfoot -21.8624 9.48861
ltoes -30.4704
608
root 43.6039 14.8764 0.950612 -155.245 -14.7068 171.199
lowerback 26.8549 1.45539 -3.54148
upperback 5.66582 -0.437302 -2.40544
thorax -8.58265 -0.597446 -0.424297
lowerneck -28.5398 -5.53664 -10.3463
upperneck 9.02109 -5.00843 6.76298
head 7.70643 -2.20114 3.19585
rclavicle -2.66371e-014 -7.55382e-015
rhumerus -8.99026 0.359837 -78.5899
rradius 72.8426
rwrist -16.7684
rhand -19.4013 -21.4919
rfingers 7.12502
rthumb 6.91779 -51.3589
lclavicle -2.66371e-014 -7.55382e-015
lhumerus -9.15438 -25.0989 76.1848
lradius 67.945
lwrist 23.5376
lhand -27.6086 -21.1478
lfingers 7.12502
lthumb -1.00785 8.82957
rfemur -69.4863 -25.2973 19.2412
rtibia 62.9354
rfoot -14.6072 -12.0277
rtoes -0.68076
lfemur -37.2712 17.8736 -14.2276
ltibia 61.2659
lfoot -23.8603 10.0386
ltoes -29.7044
609
root 43.4738 14.853 1.08833 -155.734 -14.6461 171.681
lowerback 27.0832 1.71272 -3.45383
upperback 5.78728 -0.108311 -2.33039
thorax -8.56528 -0.455307 -0.500632
lowerneck -28.6859 -5.56325 -10.3331
upperneck 9.25028 -5.02293 6.71093
head 7.80552 -2.20798 3.1734
rclavicle -1.74931e-014 1.23246e-014
rhumerus -8.43664 0.246873 -78.5284
rradius 72.4896
rwrist -17.2043
rhand -20.6462 -21.8397
rfingers 7.12502
rthumb 5.71599 -51.7426
lclavicle -1.74931e-014 1.23246e-014
lhumerus -9.45649 -24.0597 76.0467
lradius 66.348
lwrist 23.4166
lhand -27.622 -20.3039
lfingers 7.12502
lthumb -1.02087 9.67338
rfemur -69.3171 -25.3253 19.0406
rtibia 62.5673
rfoot -13.7338 -11.9994
rtoes -2.41857
lfemur -37.3495 18.5309 -14.8008
ltibia 61.6511
lfoot -26.0657 10.5007
ltoes -28.8217
610
root 43.3285 14.8231 1.23737 -155.989 -15.047 172.058
lowerback 27.1198 1.66067 -3.05777
upperback 5.87391 -0.0647935 -2.26423
thorax -8.48536 -0.446491 -0.668396
lowerneck -28.913 -5.5189 -10.1962
upperneck 9.48995 -4.97209 6.59627
head 7.90976 -2.18531 3.1193
rclavicle 2.8625e-014 2.38542e-015
rhumerus -7.87176 0.231101 -78.4696
rradius 72.0938
rwrist -17.1525
rhand -20.8832 -21.9244
rfingers 7.12502
rthumb 5.48716 -51.8333
lclavicle 2.8625e-014 2.38542e-015
lhumerus -9.83958 -23.2454 75.6297
lradius 64.785
lwrist 23.7649
lhand -27.6991 -20.408
lfingers 7.12502
lthumb -1.09528 9.56896
rfemur -69.3642 -25.7932 18.8354
rtibia 62.1855
rfoot -12.8981 -11.8174
rtoes -0.647237
lfemur -37.9555 18.5146 -15.406
ltibia 62.1895
lfoot -28.2315 10.9604
ltoes -27.2012
611
root 43.1824 14.7903 1.38937 -156.142 -15.4418 172.523
lowerback 26.9544 1.62399 -2.61733
upperback 5.93728 0.0217976 -2.27178
thorax -8.32956 -0.414508 -0.957263
lowerneck -29.0111 -5.4349 -9.77621
upperneck 9.58958 -4.97748 6.42958
head 7.94385 -2.18577 2.99456
rclavicle 4.49253e-014 2.78299e-014
rhumerus -7.38891 0.0589899 -78.5163
rradius 71.671
rwrist -17.0305
rhand -20.6312 -21.8492
rfingers 7.12502
rthumb 5.7304 -51.7517
lclavicle 4.49253e-014 2.78299e-014
lhumerus -10.136 -22.8064 75.013
lradius 63.079
lwrist 24.1443
lhand -27.9177 -20.5548
lfingers 7.12502
lthumb -1.30647 9.42094
rfemur -69.528 -26.1129 18.6705
rtibia 61.7867
rfoot -12.2424 -11.7155
rtoes 1.82749
lfemur -38.9126 18.685 -15.9606
ltibia 62.9203
lfoot -29.9609 11.3782
ltoes -26.1097
612
root 43.0372 14.7507 1.53995 -156.292 -15.71 172.829
lowerback 26.8387 1.67271 -2.53815
upperback 5.94672 0.122506 -2.23779
thorax -8.26025 -0.36577 -0.997601
lowerneck -28.8966 -5.35704 -9.6196
upperneck 9.62298 -4.9266 6.36612
head 7.92894 -2.16116 2.95717
rclavicle 1.86858e-014 2.0276e-014
rhumerus -7.12986 0.209395 -78.348
rradius 71.3281
rwrist -17.0631
rhand -20.6315 -21.8073
rfingers 7.12502
rthumb 5.73017 -51.7099
lclavicle 1.86858e-014 2.0276e-014
lhumerus -10.7332 -22.188 74.7866
lradius 61.457
lwrist 24.0462
lhand -28.2244 -20.4289
lfingers 7.12502
lthumb -1.60263 9.5448
rfemur -69.669 -26.4039 18.354
rtibia 61.373
rfoot -11.4495 -11.8167
rtoes 1.94909
lfemur -39.9462 19.0957 -16.72
ltibia 63.8926
lfoot -31.2507 11.6348
ltoes -25.8096
613
root 42.8957 14.7151 1.68704 -156.726 -15.9814 172.972
lowerback 27.1904 1.80419 -2.70832
upperback 5.96648 0.218177 -2.19127
thorax -8.4158 -0.322814 -0.88282
lowerneck -28.665 -5.37858 -9.7018
upperneck 9.63346 -4.96396 6.51412
head 7.90879 -2.1662 3.01787
rclavicle 1.27222e-014 -3.18055e-015
rhumerus -7.12746 0.441257 -78.0971
rradius 71.1823
rwrist -16.9623
rhand -20.5839 -21.6719
rfingers 7.12502
rthumb 5.77614 -51.5732
lclavicle 1.27222e-014 -3.18055e-015
lhumerus -11.474 -21.4653 74.7112
lradius 59.9601
lwrist 23.7445
lhand -28.2039 -20.6667
lfingers 7.12502
lthumb -1.58281 9.30721
rfemur -69.3287 -26.7763 17.7851
rtibia 60.9086
rfoot -10.5764 -12.0621
rtoes -0.298688
lfemur -40.5765 19.4383 -17.4014
ltibia 64.9505
lfoot -32.0882 11.4979
ltoes -25.6767
614
root 42.7459 14.6787 1.8322 -157.001 -16.2335 173.278
lowerback 27.1086 1.96539 -2.76495
upperback 6.01647 0.414186 -2.17266
thorax -8.31978 -0.231259 -0.893737
lowerneck -28.73 -5.43153 -9.49306
upperneck 9.86915 -5.10035 6.50407
head 8.00576 -2.21793 2.96115
rclavicle 1.31198e-014 4.09496e-014
rhumerus -7.07377 0.327772 -77.9735
rradius 70.9713
rwrist -16.4935
rhand -20.4649 -21.3935
rfingers 7.12502
rthumb 5.89099 -51.2916
lclavicle 1.31198e-014 4.09496e-014
lhumerus -12.0094 -20.7185 74.4718
lradius 58.4488
lwrist 23.1662
lhand -27.4988 -20.7249
lfingers 7.12502
lthumb -0.901868 9.2529
rfemur -69.1541 -26.9851 17.3362
rtibia 60.4015
rfoot -9.74711 -12.3308
rtoes -1.98076
lfemur -41.4317 19.6616 -17.8144
ltibia 66.0316
lfoot -32.4972 10.9089
ltoes -25.3581
615
root 42.5942 14.6422 1.97449 -157.29 -16.502 173.62
lowerback 26.9366 2.08641 -2.80329
upperback 6.08412 0.565023 -2.17907
thorax -8.15871 -0.162242 -0.92576
lowerneck -28.8333 -5.44822 -9.28268
upperneck 10.0831 -5.20287 6.57981
head 8.10127 -2.24406 2.93875
rclavicle 1.86858e-014 -2.40529e-014
rhumerus -7.12469 0.646473 -77.8355
rradius 70.564
rwrist -15.3393
rhand -21.6772 -21.1207
rfingers 7.12502
rthumb 4.7205 -51.0481
lclavicle 1.86858e-014 -2.40529e-014
lhumerus -12.6402 -19.9528 74.2059
lradius 57.1174
lwrist 22.5585
lhand -27.0768 -20.5236
lfingers 7.12502
lthumb -0.494307 9.45554
rfemur -68.8455 -27.0485 16.755
rtibia 59.8202
rfoot -8.91722 -12.6322
rtoes -2.79492
lfemur -42.1589 19.7392 -18.0344
ltibia 66.9912
lfoot -32.6541 9.9254
ltoes -24.6738
616
root 42.4515 14.6159 2.11701 -157.659 -16.8548 173.68
lowerback 27.0156 2.19078 -3.10177
upperback 6.1673 0.592696 -2.20792
thorax -8.10925 -0.153331 -0.795103
lowerneck -28.6626 -5.51999 -9.25597
upperneck 9.99629 -5.37388 6.88452
head 8.07096 -2.29287 3.01505
rclavicle -3.57812e-014 -3.45885e-014
rhumerus -7.25056 0.734883 -77.5541
rradius 70.5234
rwrist -15.6214
rhand -21.1283 -21.208
rfingers 7.12502
rthumb 5.25043 -51.1229
lclavicle -3.57812e-014 -3.45885e-014
lhumerus -13.2999 -19.1088 74.0381
lradius 55.8095
lwrist 21.9407
lhand -26.9144 -20.6258
lfingers 7.12502
lthumb -0.337399 9.35366
rfemur -68.1663 -27.0748 15.6808
rtibia 59.1583
rfoot -8.06845 -13.1315
rtoes -3.11035
lfemur -42.5247 19.5768 -18.3911
ltibia 67.6853
lfoot -32.7875 8.94516
ltoes -24.2842
